<svg width="60" height="60" viewBox="0 0 60 60" fill="none" xmlns="http://www.w3.org/2000/svg">
<path d="M20.6955 42.7273C13.8401 42.7273 8.66625 40.8826 5.17388 37.1933C1.72463 33.504 0 28.5063 0 22.2002C0 17.6529 0.754524 13.7276 2.26357 10.4244C3.77262 7.07831 6.05775 4.50438 9.11896 2.70263C12.2233 0.900876 16.1468 0 20.8895 0C23.3471 0 25.5676 0.171596 27.5509 0.514788C29.5773 0.815078 31.4744 1.26552 33.2422 1.8661V7.91484C29.7067 6.62788 25.7832 5.98439 21.4716 5.98439C16.1684 5.98439 12.4389 7.37861 10.2831 10.167C8.17042 12.9555 7.11408 16.9665 7.11408 22.2002C7.11408 26.9619 8.23509 30.5869 10.4771 33.075C12.7191 35.5632 16.1899 36.8072 20.8895 36.8072C24.5975 36.8072 27.594 36.3783 29.8791 35.5203V23.9376H19.4667V19.3688H35.8938V39.3168C34.5572 40.1748 32.6385 40.9684 30.1378 41.6977C27.6802 42.3841 24.5328 42.7273 20.6955 42.7273Z" fill="black"/>
<path d="M29.9551 60V19.3636H36.1574V37.0316H53.7971V19.3636H59.9995V60H53.7971V42.332H36.1574V60H29.9551Z" fill="black"/>
</svg>
